PathFileType	4	(x/y/z)	S01_M20_T10.trc
DataRate	CameraRate	NumFrames	NumMarkers	Units	OrigDataRate	OrigDataStartFrame	OrigNumFrames
240	240	8	51	mm	240	53	419
Frame#	Time	Sternum			R.Acromium			L.Acromium			Top.Head			R.ASIS			L.ASIS			R.PSIS			L.PSIS			R.Great.Tro			L.Great.Tro			R.Iliac.Crest			L.Iliac.Crest			V.Sacral			R.Thigh.Upper.Post			R.Thigh.Lower.Ant			R.Thigh.Lower.Post			R.Thigh.Upper.Ant			R.Knee.Lat			R.Knee.Med			R.Shank.Upper.Post			R.Shank.Lower.Ant			R.Shank.Lower.Post			R.Shank.Upper.Ant			R.Ankle.Lat			R.Ankle.Med			R.Heel.Upper			R.Heel.Med			R.Heel.Lat			R.Toe.Lat			R.Toe.Med			R.Toe.Tip			L.Thigh.Upper.Post			L.Thigh.Lower.Ant			L.Thigh.Lower.Post			L.Thigh.Upper.Ant			L.Knee.Lat			L.Knee.Med			L.Shank.Upper.Post			L.Shank.Lower.Ant			L.Shank.Lower.Post			L.Shank.Upper.Ant			L.Ankle.Lat			L.Ankle.Med			L.Heel.Upper			L.Heel.Med			L.Heel.Lat			L.Toe.Lat			L.Toe.Med			L.Toe.Tip			Cervical.Spine			Back			
		X1	Y1	Z1	X2	Y2	Z2	X3	Y3	Z3	X4	Y4	Z4	X5	Y5	Z5	X6	Y6	Z6	X7	Y7	Z7	X8	Y8	Z8	X9	Y9	Z9	X10	Y10	Z10	X11	Y11	Z11	X12	Y12	Z12	X13	Y13	Z13	X14	Y14	Z14	X15	Y15	Z15	X16	Y16	Z16	X17	Y17	Z17	X18	Y18	Z18	X19	Y19	Z19	X20	Y20	Z20	X21	Y21	Z21	X22	Y22	Z22	X23	Y23	Z23	X24	Y24	Z24	X25	Y25	Z25	X26	Y26	Z26	X27	Y27	Z27	X28	Y28	Z28	X29	Y29	Z29	X30	Y30	Z30	X31	Y31	Z31	X32	Y32	Z32	X33	Y33	Z33	X34	Y34	Z34	X35	Y35	Z35	X36	Y36	Z36	X37	Y37	Z37	X38	Y38	Z38	X39	Y39	Z39	X40	Y40	Z40	X41	Y41	Z41	X42	Y42	Z42	X43	Y43	Z43	X44	Y44	Z44	X45	Y45	Z45	X46	Y46	Z46	X47	Y47	Z47	X48	Y48	Z48	X49	Y49	Z49	X50	Y50	Z50	X51	Y51	Z51	

53	0.21667	-957.01	1288.2	232.17	-1072.7	1547.6	390.58	-1079.3	1550.1	64.675	-1026.2	1860.8	210.55	-1017.3	1039.7	397.52	-1001.7	1030.2	133.43	-1248.3	1079.5	302.28	-1253	1083.2	198.79	-1092.3	993.53	485.87	-1111.1	987.75	55.293	-1103.4	1145.3	455.32	-1108.3	1109.2	53.536	-1265.3	1046.2	247.46	-964.71	705.55	471.72	-867.39	676.67	451.02	-919.27	630.62	449.62	-911.02	754.67	470.6	-872.72	586.97	447.72	-856	593.61	301.66	-910.93	426.64	463.16	-840.34	350.45	425.49	-908.16	356.76	451.75	-847.59	421.51	443.05	-885.03	152.92	415.91	-846.75	165.25	326.44	-943.6	110.85	350.83	-919.17	85.435	323.82	-930.82	82.494	387.38	-748.99	101.75	462.57	-707.93	113.06	343.24	-655.66	145.28	402.19	-1193	717.68	84.595	-1120.8	634.1	86.247	-1198.5	628.26	101.66	-1123.4	727.57	66.481	-1166.6	534.26	95.876	-1143.6	535.67	237.87	-1239.8	397.45	84.174	-1184.3	304.03	109.67	-1246.1	319.47	90.237	-1177.4	380.15	98.331	-1273.1	106.37	135.72	-1245.1	118.38	232.75	-1343.3	75.679	184.47	-1332.6	51.244	217.49	-1336.7	50.827	155.41	-1125.2	39.341	117.58	-1098.8	48.039	238.48	-1035.9	57.437	186.3	-1160.2	1605.2	228.69	-1259.5	1298.8	255.94
54	0.22083	-951.88	1287.2	232.38	-1067.3	1546.5	390.91	-1074.4	1549.2	65.035	-1020.8	1859.8	211.1	-1011.9	1038.7	397.61	-996.61	1029.5	133.47	-1243	1078.5	302.47	-1247.9	1082.3	199	-1086.8	992.32	485.94	-1106.2	987.18	55.287	-1098.2	1144.1	455.54	-1103.4	1108.4	53.628	-1260.2	1045.3	247.61	-959.43	704.27	471.14	-862.09	675.62	450.19	-913.88	629.47	448.75	-905.81	753.49	470	-866.88	586.28	446.76	-850.53	592.85	300.54	-902.13	425.32	462.64	-830.13	350.44	425.08	-898.03	355.5	451.47	-838.75	421.37	442.43	-870.79	151.96	416.05	-832.95	164.86	326.51	-928.62	108.48	351.19	-903.69	83.492	324.23	-915.18	80.531	387.82	-733.66	103.7	462.52	-693	115.63	343.23	-641.36	149.1	401.98	-1190.3	717.79	84.58	-1118.7	633.68	86.088	-1196.5	628.4	101.54	-1120.7	727.15	66.313	-1165.3	534.16	95.666	-1142.2	535.37	237.6	-1239	397.56	84.054	-1183.8	303.96	109.49	-1245.6	319.59	90.157	-1176.7	380.05	98.133	-1273.1	106.44	135.77	-1245	118.42	232.77	-1343.3	75.743	184.55	-1332.6	51.284	217.54	-1336.7	50.91	155.47	-1125.2	39.32	117.52	-1098.8	47.981	238.45	-1035.9	57.355	186.29	-1154.9	1604.2	229.15	-1254.3	1297.9	256.34
55	0.225	-946.72	1286.1	232.61	-1061.9	1545.4	391.27	-1069.4	1548.3	65.416	-1015.4	1858.8	211.68	-1006.4	1037.7	397.7	-991.55	1028.7	133.5	-1237.8	1077.4	302.65	-1242.8	1081.5	199.21	-1081.4	991.09	486	-1101.3	986.58	55.276	-1093	1142.9	455.76	-1098.4	1107.6	53.719	-1255.1	1044.4	247.76	-954.15	702.95	470.58	-856.81	674.5	449.37	-908.52	628.26	447.92	-900.6	752.26	469.4	-861.08	585.53	445.83	-845.12	592.01	299.45	-893.43	424	462.11	-820.05	350.44	424.68	-888	354.25	451.16	-830.02	421.22	441.82	-856.71	151.11	416.16	-819.29	164.57	326.55	-913.77	106.26	351.49	-888.35	81.709	324.58	-899.69	78.722	388.2	-718.6	105.71	462.44	-678.3	118.27	343.21	-627.32	152.95	401.78	-1187.5	717.87	84.571	-1116.5	633.24	85.929	-1194.3	628.51	101.44	-1117.9	726.72	66.138	-1163.9	534.05	95.459	-1140.7	535.05	237.33	-1238.2	397.67	83.941	-1183.2	303.87	109.32	-1245	319.7	90.086	-1175.9	379.93	97.943	-1273.1	106.52	135.83	-1245	118.46	232.79	-1343.2	75.813	184.64	-1332.6	51.331	217.6	-1336.7	51.003	155.53	-1125.2	39.297	117.47	-1098.8	47.924	238.42	-1035.9	57.264	186.28	-1149.6	1603.3	229.63	-1249.2	1297	256.75
56	0.22917	-941.54	1285	232.86	-1056.5	1544.3	391.65	-1064.5	1547.4	65.818	-1010	1857.8	212.28	-1001	1036.6	397.78	-986.48	1027.9	133.52	-1232.5	1076.3	302.84	-1237.7	1080.6	199.41	-1076	989.84	486.04	-1096.4	985.96	55.261	-1087.9	1141.6	455.99	-1093.5	1106.8	53.807	-1250	1043.4	247.91	-948.87	701.59	470.06	-851.53	673.32	448.56	-903.18	626.99	447.13	-895.38	750.98	468.81	-855.33	584.7	444.94	-839.76	591.07	298.39	-884.81	422.67	461.58	-810.09	350.44	424.29	-878.09	353.02	450.82	-821.39	421.05	441.24	-842.8	150.35	416.22	-805.75	164.36	326.56	-899.06	104.18	351.73	-873.16	80.079	324.86	-884.37	77.059	388.51	-703.8	107.77	462.34	-663.85	120.96	343.18	-613.54	156.8	401.6	-1184.7	717.91	84.572	-1114.3	632.79	85.773	-1192.2	628.59	101.35	-1115.1	726.26	65.96	-1162.4	533.91	95.261	-1139.1	534.71	237.07	-1237.2	397.77	83.837	-1182.6	303.77	109.16	-1244.4	319.81	90.023	-1175	379.8	97.763	-1273.1	106.6	135.9	-1244.9	118.51	232.82	-1343.2	75.891	184.73	-1332.6	51.385	217.66	-1336.7	51.106	155.6	-1125.1	39.273	117.42	-1098.8	47.864	238.38	-1035.9	57.164	186.26	-1144.2	1602.3	230.13	-1244	1296	257.17
57	0.23333	-936.34	1283.9	233.13	-1051	1543.1	392.06	-1059.5	1546.4	66.241	-1004.6	1856.7	212.91	-995.56	1035.6	397.85	-981.41	1027.1	133.53	-1227.2	1075.2	303.03	-1232.5	1079.7	199.62	-1070.6	988.56	486.08	-1091.5	985.3	55.245	-1082.6	1140.4	456.21	-1088.5	1106	53.893	-1244.8	1042.5	248.07	-943.59	700.2	469.58	-846.27	672.08	447.78	-897.85	625.68	446.38	-890.16	749.65	468.22	-849.62	583.81	444.09	-834.45	590.05	297.37	-876.29	421.33	461.05	-800.26	350.43	423.9	-868.29	351.8	450.47	-812.88	420.85	440.67	-829.07	149.68	416.25	-792.37	164.25	326.55	-884.49	102.24	351.91	-858.12	78.596	325.07	-869.23	75.535	388.75	-689.27	109.86	462.22	-649.63	123.68	343.16	-600.02	160.66	401.43	-1181.9	717.92	84.584	-1112	632.31	85.623	-1189.9	628.64	101.26	-1112.2	725.78	65.782	-1160.9	533.75	95.074	-1137.4	534.36	236.82	-1236.2	397.87	83.746	-1182	303.66	109	-1243.7	319.92	89.973	-1174.1	379.64	97.596	-1273.1	106.69	135.98	-1244.8	118.55	232.86	-1343.1	75.977	184.83	-1332.5	51.448	217.73	-1336.7	51.222	155.68	-1125.1	39.249	117.37	-1098.8	47.8	238.34	-1035.9	57.051	186.25	-1138.9	1601.2	230.66	-1238.8	1295	257.6
58	0.2375	-931.11	1282.8	233.42	-1045.6	1541.9	392.49	-1054.6	1545.4	66.684	-999.23	1855.6	213.55	-990.1	1034.5	397.91	-976.32	1026.2	133.53	-1221.9	1074	303.22	-1227.3	1078.8	199.84	-1065.2	987.26	486.1	-1086.6	984.62	55.229	-1077.4	1139.1	456.43	-1083.6	1105.1	53.977	-1239.6	1041.5	248.22	-938.3	698.77	469.13	-841.01	670.79	447.01	-892.54	624.32	445.68	-884.93	748.28	467.63	-843.94	582.86	443.28	-829.18	588.93	296.38	-867.86	419.98	460.52	-790.56	350.42	423.53	-858.6	350.59	450.1	-804.47	420.62	440.13	-815.53	149.1	416.23	-779.13	164.21	326.51	-870.09	100.44	352.01	-843.26	77.252	325.21	-854.28	74.141	388.91	-675.02	111.99	462.08	-635.65	126.44	343.13	-586.77	164.52	401.28	-1178.9	717.89	84.611	-1109.6	631.82	85.481	-1187.5	628.66	101.2	-1109.3	725.27	65.609	-1159.2	533.57	94.901	-1135.5	533.97	236.59	-1235.1	397.96	83.669	-1181.2	303.52	108.86	-1242.9	320.02	89.936	-1173.1	379.47	97.445	-1273.1	106.8	136.06	-1244.6	118.61	232.91	-1343.1	76.073	184.94	-1332.5	51.518	217.81	-1336.6	51.351	155.76	-1125.1	39.224	117.33	-1098.8	47.731	238.31	-1035.9	56.926	186.23	-1133.6	1600.1	231.2	-1233.5	1294	258.05
59	0.24167	-925.86	1281.6	233.73	-1040.1	1540.6	392.94	-1049.6	1544.4	67.149	-993.82	1854.5	214.22	-984.62	1033.4	397.96	-971.23	1025.3	133.51	-1216.6	1072.9	303.42	-1222.1	1077.8	200.06	-1059.8	985.93	486.1	-1081.7	983.91	55.216	-1072.1	1137.7	456.66	-1078.6	1104.3	54.06	-1234.5	1040.5	248.38	-933.01	697.32	468.72	-835.75	669.44	446.26	-887.24	622.93	445.03	-879.68	746.87	467.05	-838.31	581.85	442.51	-823.96	587.73	295.44	-859.53	418.62	460	-781	350.41	423.16	-849.04	349.39	449.71	-796.17	420.37	439.61	-802.19	148.6	416.16	-766.06	164.24	326.43	-855.86	98.755	352.04	-828.58	76.038	325.28	-839.54	72.867	389.01	-661.04	114.14	461.93	-621.92	129.22	343.09	-573.78	168.35	401.14	-1175.9	717.82	84.655	-1107.2	631.31	85.351	-1185.1	628.64	101.15	-1106.3	724.74	65.444	-1157.4	533.37	94.744	-1133.5	533.56	236.38	-1233.9	398.04	83.611	-1180.4	303.36	108.74	-1242.1	320.12	89.914	-1172	379.27	97.313	-1273.1	106.91	136.16	-1244.5	118.66	232.97	-1343	76.181	185.06	-1332.5	51.599	217.9	-1336.6	51.497	155.85	-1125.1	39.199	117.29	-1098.8	47.655	238.27	-1035.9	56.785	186.22	-1128.2	1599.1	231.77	-1228.3	1292.9	258.5
60	0.24583	-920.58	1280.5	234.05	-1034.6	1539.4	393.43	-1044.6	1543.4	67.634	-988.41	1853.4	214.92	-979.12	1032.3	397.99	-966.14	1024.4	133.47	-1211.2	1071.7	303.62	-1216.8	1076.8	200.29	-1054.4	984.56	486.09	-1076.8	983.18	55.208	-1066.8	1136.4	456.88	-1073.6	1103.4	54.141	-1229.3	1039.4	248.55	-927.7	695.84	468.34	-830.5	668.05	445.52	-881.95	621.49	444.42	-874.41	745.42	466.46	-832.7	580.79	441.78	-818.78	586.45	294.54	-851.29	417.26	459.48	-771.57	350.37	422.79	-839.59	348.2	449.3	-787.98	420.09	439.1	-789.05	148.16	416.06	-753.17	164.34	326.32	-841.82	97.192	352.01	-814.09	74.947	325.28	-825.01	71.704	389.03	-647.34	116.3	461.77	-608.45	132.01	343.05	-561.07	172.15	401.03	-1172.8	717.72	84.716	-1104.6	630.78	85.234	-1182.6	628.58	101.12	-1103.2	724.19	65.29	-1155.5	533.14	94.606	-1131.4	533.12	236.18	-1232.6	398.12	83.572	-1179.6	303.19	108.64	-1241.1	320.22	89.908	-1170.8	379.05	97.201	-1273	107.04	136.27	-1244.4	118.71	233.05	-1342.9	76.303	185.19	-1332.5	51.69	217.99	-1336.6	51.662	155.95	-1125	39.174	117.25	-1098.7	47.571	238.23	-1035.9	56.628	186.2	-1122.8	1597.9	232.36	-1223	1291.8	258.96
